<svg viewBox="0 0 60 60" xmlns="http://www.w3.org/2000/svg"><path d="m32.96 39.708 9.852 9.853M36.676 55.472l-12.147-7.333M19.793 33.17l-3.886 7.114a2.13 2.13 0 0 0 .429 2.505l.857.857a2.126 2.126 0 0 0 2.53.414L27.24 39.8" fill="none" stroke="#f3f3ef" stroke-linecap="round" stroke-linejoin="round" stroke-width="2px" class="stroke-000000"></path><path d="M24.635 34.27h3.981v17.914h0-1.98a2 2 0 0 1-2-2V34.27h0Z" transform="rotate(-135 26.626 43.227)" fill="none" stroke="#f3f3ef" stroke-linecap="round" stroke-linejoin="round" stroke-width="2px" class="stroke-000000"></path><path d="M15.753 49.33h6.967v2.98a1 1 0 0 1-1 1h-4.967a1 1 0 0 1-1-1v-2.98h0Z" transform="rotate(-135 19.236 51.32)" fill="none" stroke="#f3f3ef" stroke-linecap="round" stroke-linejoin="round" stroke-width="2px" class="stroke-000000"></path><rect height="11.943" rx="1" ry="1" transform="rotate(-135 41.405 53.783)" width="3.981" x="39.414" y="47.812" fill="none" stroke="#f3f3ef" stroke-linecap="round" stroke-linejoin="round" stroke-width="2px" class="stroke-000000"></rect><path d="M45.628 49.561 56.888 38.3M55.48 36.893l2.815 2.815M56.888 38.3l2.111-2.111M20.292 27.04l-9.853-9.852M11.861 35.471 4.528 23.324" fill="none" stroke="#f3f3ef" stroke-linecap="round" stroke-linejoin="round" stroke-width="2px" class="stroke-000000"></path><path d="M16.783 24.417h1.98V42.33h0-3.98 0V26.417a2 2 0 0 1 2-2Z" transform="rotate(45 16.773 33.374)" fill="none" stroke="#f3f3ef" stroke-linecap="round" stroke-linejoin="round" stroke-width="2px" class="stroke-000000"></path><path d="M6.197 38.773h4.966a1 1 0 0 1 1 1v2.981h0-6.966 0v-2.981a1 1 0 0 1 1-1Z" transform="rotate(45 8.68 40.764)" fill="none" stroke="#f3f3ef" stroke-linecap="round" stroke-linejoin="round" stroke-width="2px" class="stroke-000000"></path><rect height="11.943" rx="1" ry="1" transform="rotate(45 6.217 18.595)" width="3.981" x="4.226" y="12.623" fill="none" stroke="#f3f3ef" stroke-linecap="round" stroke-linejoin="round" stroke-width="2px" class="stroke-000000"></rect><path d="M10.439 14.372 21.7 3.112M23.107 4.52l-2.815-2.815M21.7 3.112l2.111-2.111M42.003 23.416l-5.419-5.419M42.003 23.416l-5.419-5.419M31.552 35.485l18.244-21.059 3.708-6.582a.977.977 0 0 0-1.348-1.348l-6.582 3.708-21.06 18.244" fill="none" stroke="#f3f3ef" stroke-linecap="round" stroke-linejoin="round" stroke-width="2px" class="stroke-000000"></path><path d="M45 20v-.046l.626-5.58-5.58.626H40M24.515 36.893l-1.408-1.408M30.728 31.263a1.99 1.99 0 0 0-1.99-1.99M31.552 52.376l3.519-3.519-5.63-5.63M7.624 28.448l3.519-3.519 5.63 5.63" fill="none" stroke="#f3f3ef" stroke-linecap="round" stroke-linejoin="round" stroke-width="2px" class="stroke-000000"></path></svg>