<?xml version="1.0" ?><svg style="enable-background:new 0 0 48 48;" version="1.1" viewBox="0 0 48 48" xml:space="preserve" xmlns="http://www.w3.org/2000/svg" xmlns:xlink="http://www.w3.org/1999/xlink"><style type="text/css">
	.Round_x0020_Corners_x0020_2_x0020_pt{fill:#FFFFFF;stroke:#231F20;stroke-miterlimit:10;}
	.Live_x0020_Reflect_x0020_X{fill:none;}
	.Bevel_x0020_Soft{fill:url(#SVGID_1_);}
	.Dusk{fill:#FFFFFF;}
	.Foliage_GS{fill:#FFDD00;}
	.Pompadour_GS{fill-rule:evenodd;clip-rule:evenodd;fill:#44ADE2;}
	.st0{display:none;}
	.st1{fill:none;stroke:#30302F;stroke-width:0.7;stroke-linecap:round;stroke-linejoin:round;stroke-miterlimit:10;}
	.st2{fill:#30302F;}
	.st3{fill:none;stroke:#30302F;stroke-width:0.6;stroke-linecap:round;stroke-linejoin:round;stroke-miterlimit:10;}
	.st4{fill:none;stroke:#303030;stroke-width:0.75;stroke-linecap:round;stroke-linejoin:round;stroke-miterlimit:10;}
	.st5{fill:#303030;}
	.st6{fill:none;stroke:#303030;stroke-width:0.75;stroke-miterlimit:10;}
	.st7{fill:none;stroke:#303030;stroke-width:0.75;stroke-linecap:round;stroke-miterlimit:10;}
	.st8{fill:none;}
	.st9{fill:none;stroke:#303030;stroke-width:0.75;stroke-linejoin:round;stroke-miterlimit:10;}
</style><linearGradient gradientUnits="userSpaceOnUse" id="SVGID_1_" x1="-232" x2="-231.2929" y1="-232" y2="-231.2929"><stop offset="0" style="stop-color:#DEDFE3"/><stop offset="0.1783" style="stop-color:#DADBDF"/><stop offset="0.3611" style="stop-color:#CECFD3"/><stop offset="0.546" style="stop-color:#B9BCBF"/><stop offset="0.7324" style="stop-color:#9CA0A2"/><stop offset="0.9181" style="stop-color:#787D7E"/><stop offset="1" style="stop-color:#656B6C"/></linearGradient><g class="st0" id="Guides_For_Artboard"/><g id="Padding__x26__Artboard"/><g id="Icons"><g><g><g><path class="st4" d="M24.31,15.17c0,0-3.57-0.27-4.64,1.39c0,0-3.52,1.87-4.32,4.69"/><path class="st4" d="M4.74,22.07c0,0,3.31,2.93,3.7,3.53s4.47,3.63,6.81,3.18"/><path class="st4" d="M16.71,25.63c0,0,0.73-2.62,3.12-2.44c0,0,2.5,0.19,3.06,2.44"/><line class="st4" x1="16.71" x2="22.9" y1="25.63" y2="25.63"/><path class="st4" d="M18.29,25.63c0,0-0.41,1.57,1.52,1.54c0,0,1.29,0.22,1.22-1.54"/><path class="st4" d="M17.46,26.91c0,0,1.95,1.24,4.46,0"/><path class="st4" d="M24.49,15.17c0,0,3.57-0.27,4.64,1.39c0,0,3.52,1.87,4.32,4.69"/><path class="st4" d="M31.75,22.07c0,0,1.46-0.6,3.39-0.4c1.93,0.2,2.13,0.55,4.53-0.04c2.4-0.59,4.39,0.44,4.39,0.44      s-3.75,1.29-4.63,2.11c-0.88,0.82-3.89,1.53-5.31,1.04c0,0-0.22,4-1.31,5.09l-3.84,4.54c0,0-1.63,1.42-4.1,1.26h-0.94      c-2.46,0.16-4.1-1.26-4.1-1.26l-3.84-4.54c-1.09-1.09-1.31-5.09-1.31-5.09c-1.42,0.49-4.43-0.22-5.31-1.04      c-0.88-0.82-4.63-2.11-4.63-2.11s2-1.03,4.39-0.44c2.4,0.59,2.6,0.24,4.53,0.04s3.39,0.4,3.39,0.4"/><path class="st4" d="M44.06,22.07c0,0-3.31,2.93-3.7,3.53c-0.38,0.6-4.47,3.63-6.81,3.18"/><path class="st4" d="M32.08,25.63c0,0-0.73-2.62-3.12-2.44c0,0-2.5,0.19-3.06,2.44"/><line class="st4" x1="32.08" x2="25.9" y1="25.63" y2="25.63"/><path class="st4" d="M30.51,25.63c0,0,0.41,1.57-1.52,1.54c0,0-1.29,0.22-1.22-1.54"/><path class="st4" d="M31.33,26.91c0,0-1.95,1.24-4.46,0"/><path class="st4" d="M20.23,32.98c0.04-3.98,2.66-4.8,2.66-4.8l1.42,0.61l1.51-0.61c0,0,2.67,1.07,2.59,4.8"/><line class="st4" x1="20.36" x2="28.27" y1="31.63" y2="31.63"/><line class="st4" x1="22.9" x2="23.93" y1="28.18" y2="24.41"/><line class="st4" x1="25.89" x2="24.86" y1="28.18" y2="24.41"/><path class="st4" d="M20.36,21.45c0,0-0.97-2.9-2.11-3.95"/><path class="st4" d="M22.9,21.25c0,0-0.6-3.46-2.54-5.14"/><path class="st4" d="M28.43,21.45c0,0,0.97-2.9,2.11-3.95"/><path class="st4" d="M25.89,21.15c0,0,0.6-3.46,2.54-5.14"/></g><path class="st4" d="M17.15,29.01c0,0,0.61,1.03,0.92,1.28"/></g><line class="st4" x1="14.89" x2="12.97" y1="27.18" y2="26.83"/><line class="st4" x1="33.9" x2="35.46" y1="27.18" y2="26.91"/></g></g></svg>